/* XPM */
static char * next_xpm[] = {
"50 35 106 2",
"  	c None",
". 	c #004DB1",
"+ 	c #004C9E",
"@ 	c #00254E",
"# 	c #004B9D",
"$ 	c #2D6AA3",
"% 	c #0758EC",
"& 	c #1F69E8",
"* 	c #9FC1D6",
"= 	c #3F7FE3",
"- 	c #0054EC",
"; 	c #004DAC",
"> 	c #2065B5",
", 	c #FEFEFE",
"' 	c #7FA4CD",
") 	c #004DB6",
"! 	c #1060FD",
"~ 	c #80AAF2",
"{ 	c #F3F7F9",
"] 	c #D9E5F0",
"^ 	c #2A71FD",
"/ 	c #004FBD",
"( 	c #206BE5",
"_ 	c #004EB7",
": 	c #206BFD",
"< 	c #97BCD3",
"[ 	c #B9D0DF",
"} 	c #CADBE6",
"| 	c #A7C6DC",
"1 	c #367AFC",
"2 	c #004FBE",
"3 	c #77B7E0",
"4 	c #3F80EE",
"5 	c #B5DFFC",
"6 	c #81C6F4",
"7 	c #80B8DE",
"8 	c #8FB5F3",
"9 	c #87CEFE",
"0 	c #C2E6FE",
"a 	c #5D95DD",
"b 	c #86CEFE",
"c 	c #81C6F3",
"d 	c #649CDD",
"e 	c #87CFFF",
"f 	c #4485D2",
"g 	c #84CCFB",
"h 	c #4D8ED5",
"i 	c #4384D2",
"j 	c #85CDFD",
"k 	c #84CBFA",
"l 	c #4C8DD4",
"m 	c #004EBD",
"n 	c #4384D1",
"o 	c #86CDFD",
"p 	c #83CBFA",
"q 	c #7FAAFD",
"r 	c #4283D1",
"s 	c #0050CD",
"t 	c #65FDF7",
"u 	c #75E5FA",
"v 	c #76E6FB",
"w 	c #008CE8",
"x 	c #00C3D3",
"y 	c #2E97DB",
"z 	c #7FC3F0",
"A 	c #7EC5F1",
"B 	c #389EDB",
"C 	c #0CADED",
"D 	c #6DB6DB",
"E 	c #81C7F5",
"F 	c #6CBADF",
"G 	c #14B1E8",
"H 	c #006DFA",
"I 	c #37C9D4",
"J 	c #679DC0",
"K 	c #3CBFD2",
"L 	c #027CF8",
"M 	c #004EB6",
"N 	c #0061FC",
"O 	c #47EEEC",
"P 	c #99E1EA",
"Q 	c #99E1E9",
"R 	c #51E6EB",
"S 	c #0071FA",
"T 	c #004EBC",
"U 	c #32E0E5",
"V 	c #0050B1",
"W 	c #005AEF",
"X 	c #2FD5F5",
"Y 	c #35D8F6",
"Z 	c #0064F1",
"` 	c #004DAF",
" .	c #0087B8",
"..	c #2773BD",
"+.	c #0050C8",
"@.	c #0087D8",
"#.	c #00C2D3",
"$.	c #008ED8",
"%.	c #0050CC",
"&.	c #1C64AE",
"*.	c #004BA4",
"=.	c #0055A7",
"-.	c #005FA6",
";.	c #0056A7",
">.	c #004CA5",
",.	c #4D8ECA",
"                                                                                                    ",
"                                                                                                    ",
"                                                                                                    ",
"                                                                                                    ",
"                                                                                                    ",
"                                                                          . + + + + + + + +         ",
"              @ # $                         @ # $                         % & * * * * * = - ;       ",
"            @ > , ' #                     @ > , ' #                     ) ! ~ { , , , , ] ^ /       ",
"            # ( , , , #                   # ( , , , #                   _ : < [ } } } } | 1 2       ",
"            # ( 3 , , , #                 # ( 3 , , , #                 _ 4 5 6 6 6 6 6 7 8 2       ",
"            # ( 3 9 0 , , #               # ( 3 9 0 , , #               _ a b b b b b b c d 2       ",
"            # ( 9 9 e 0 , , #             # ( 9 9 e 0 , , #             _ f 9 9 b b b b g h 2       ",
"            # ( e e e e 0 , , #           # ( e e e e 0 , , #           ) i b b j j j j k l m       ",
"            # ( 9 9 9 9 b 0 , , #         # ( 9 9 9 9 b 0 , , #         ) i b b j j j j k l m       ",
"            # ( b b b b b e 0 , , #       # ( b b b b b e 0 , , #       ) n o o j j j j p l m       ",
"            # ( b b b b b b b 0 , q #     # ( b b b b b b b 0 , q #     ) r j j j j j j p l m       ",
"            # ( b b b b b b b e 0 , s     # ( b b b b b b b e 0 , s     ) r j j j j j j p l m       ",
"            # ( b b b b b b b b e t t #   # ( b b b b b b b b e t t #   ) r j j j j j j p l m       ",
"            # ( b b b b b b b b u t s     # ( b b b b b b b b u t s     _ i b b b b b b g h 2       ",
"            # ( b b b b b b b v t w #     # ( b b b b b b b v t w #     ) r j j j j j j p l m       ",
"            # ( b b b b b b t t x #       # ( b b b b b b t t x #       ) r j j j j j j p l m       ",
"            # ( b b b b b t t x #         # ( b b b b b t t x #         ) r j j j j j j p l m       ",
"            # ( b b b b t t x #           # ( b b b b t t x #           ) y z j j j j j A B m       ",
"            # ( b b b v t x #             # ( b b b v t x #             ) C D E E E E E F G m       ",
"            # ( b b t t x #               # ( b b t t x #               ) H I J J J J J K L m       ",
"            # ( t t t x #                 # ( t t t x #                 M N O P Q Q Q Q R S T       ",
"            # ( t U x #                   # ( t U x #                   V W X t t t t t Y Z `       ",
"            @  .x  .#                     @  .x  .#                     ..+.@.#.#.#.#.#.$.%.&.      ",
"              @ # #                         @ # #                         *.=.-.-.-.-.-.;.>.,.      ",
"                                                                            # # # # # # # #         ",
"                                                                                                    ",
"                                                                                                    ",
"                                                                                                    ",
"                                                                                                    ",
"                                                                                                    "};
