/* XPM */
static char * pause_xpm[] = {
"30 35 90 1",
" 	c None",
".	c #004DB1",
"+	c #004C9E",
"@	c #0758EC",
"#	c #1F69E8",
"$	c #9FC1D6",
"%	c #3F7FE3",
"&	c #0054EC",
"*	c #004DAC",
"=	c #004DB6",
"-	c #1060FD",
";	c #80AAF2",
">	c #F3F7F9",
",	c #FEFEFE",
"'	c #D9E5F0",
")	c #2A71FD",
"!	c #004FBD",
"~	c #004EB7",
"{	c #206BFD",
"]	c #97BCD3",
"^	c #B9D0DF",
"/	c #CADBE6",
"(	c #A7C6DC",
"_	c #367AFC",
":	c #004FBE",
"<	c #3F80EE",
"[	c #B5DFFC",
"}	c #81C6F4",
"|	c #80B8DE",
"1	c #8FB5F3",
"2	c #5D95DD",
"3	c #86CEFE",
"4	c #81C6F3",
"5	c #649CDD",
"6	c #4485D2",
"7	c #87CEFE",
"8	c #84CCFB",
"9	c #4D8ED5",
"0	c #4384D2",
"a	c #85CDFD",
"b	c #84CBFA",
"c	c #4C8DD4",
"d	c #004EBD",
"e	c #4384D1",
"f	c #86CDFD",
"g	c #83CBFA",
"h	c #4283D1",
"i	c #2E97DB",
"j	c #7FC3F0",
"k	c #7EC5F1",
"l	c #389EDB",
"m	c #0CADED",
"n	c #6DB6DB",
"o	c #81C7F5",
"p	c #6CBADF",
"q	c #14B1E8",
"r	c #006DFA",
"s	c #37C9D4",
"t	c #679DC0",
"u	c #3CBFD2",
"v	c #027CF8",
"w	c #004EB6",
"x	c #0061FC",
"y	c #47EEEC",
"z	c #99E1EA",
"A	c #99E1E9",
"B	c #51E6EB",
"C	c #0071FA",
"D	c #004EBC",
"E	c #0050B1",
"F	c #005AEF",
"G	c #2FD5F5",
"H	c #65FDF7",
"I	c #35D8F6",
"J	c #0064F1",
"K	c #004DAF",
"L	c #2773BD",
"M	c #0050C8",
"N	c #0087D8",
"O	c #00C2D3",
"P	c #008ED8",
"Q	c #0050CC",
"R	c #1C64AE",
"S	c #004BA4",
"T	c #0055A7",
"U	c #005FA6",
"V	c #0056A7",
"W	c #004CA5",
"X	c #4D8ECA",
"Y	c #004B9D",
"                              ",
"                              ",
"                              ",
"                              ",
"                              ",
"   .++++++++   .++++++++      ",
"   @#$$$$$%&*  @#$$$$$%&*     ",
"  =-;>,,,,')! =-;>,,,,')!     ",
"  ~{]^////(_: ~{]^////(_:     ",
"  ~<[}}}}}|1: ~<[}}}}}|1:     ",
"  ~233333345: ~233333345:     ",
"  ~677333389: ~677333389:     ",
"  =033aaaabcd =033aaaabcd     ",
"  =033aaaabcd =033aaaabcd     ",
"  =effaaaagcd =effaaaagcd     ",
"  =haaaaaagcd =haaaaaagcd     ",
"  =haaaaaagcd =haaaaaagcd     ",
"  =haaaaaagcd =haaaaaagcd     ",
"  ~033333389: ~033333389:     ",
"  =haaaaaagcd =haaaaaagcd     ",
"  =haaaaaagcd =haaaaaagcd     ",
"  =haaaaaagcd =haaaaaagcd     ",
"  =ijaaaaakld =ijaaaaakld     ",
"  =mnooooopqd =mnooooopqd     ",
"  =rstttttuvd =rstttttuvd     ",
"  wxyzAAAABCD wxyzAAAABCD     ",
"  EFGHHHHHIJK EFGHHHHHIJK     ",
"  LMNOOOOOPQR LMNOOOOOPQR     ",
"   STUUUUUVWX  STUUUUUVWX     ",
"    YYYYYYYY    YYYYYYYY      ",
"                              ",
"                              ",
"                              ",
"                              ",
"                              "};
