/* XPM */
static char * play_xpm[] = {
"30 30 11 1",
" 	c None",
".	c #004B9D",
"+	c #4080CD",
"@	c #FEFEFE",
"#	c #0056FD",
"$	c #68A0C2",
"%	c #86CEFE",
"&	c #87CEFE",
"*	c #87CFFF",
"=	c #65FDF7",
"-	c #00C3D3",
"                              ",
"                              ",
"                              ",
"   ....                       ",
" ..+@@@...                    ",
"..#+@@@@@@..                  ",
"..#+$%@@@@@@..                ",
"..#+$&&&*@@@@@..              ",
"..#+&**&***@@@@@..            ",
"..#+*********@@@@@..          ",
"..#+&&&&&&&*%**@@@@@..        ",
"..#+%%%%%%%%%%***@@@@@..      ",
"..#+%%%%%%%%%%%%%%*@@@@#.     ",
"..#+%%%%%%%%%%%%%****@@@#.    ",
"..#+%%%%%%%%%%%%%%%%**====.   ",
"..#+%%%%%%%%%%%%%%%%%===#.    ",
"..#+%%%%%%%%%%%%%%*===-#.     ",
"..#+%%%%%%%%%%%%====--..      ",
"..#+%%%%%%%%%%====--..        ",
"..#+%%%%%%%*====--..          ",
"..#+%%%%%%*===--..            ",
"..#+%%%*====--..              ",
"..#+======--..                ",
"..#+===---..                  ",
" ..----...                    ",
"   ....                       ",
"                              ",
"                              ",
"                              ",
"                              "};
