/* XPM */
static char * prev_xpm[] = {
"50 35 106 2",
"  	c None",
". 	c #004C9E",
"+ 	c #004DB1",
"@ 	c #004DAC",
"# 	c #0054EC",
"$ 	c #3F7FE3",
"% 	c #9FC1D6",
"& 	c #1F69E8",
"* 	c #0758EC",
"= 	c #2D6AA3",
"- 	c #004B9D",
"; 	c #00254E",
"> 	c #004FBD",
", 	c #2A71FD",
"' 	c #D9E5F0",
") 	c #FEFEFE",
"! 	c #F3F7F9",
"~ 	c #80AAF2",
"{ 	c #1060FD",
"] 	c #004DB6",
"^ 	c #7FA4CD",
"/ 	c #2065B5",
"( 	c #004FBE",
"_ 	c #367AFC",
": 	c #A7C6DC",
"< 	c #CADBE6",
"[ 	c #B9D0DF",
"} 	c #97BCD3",
"| 	c #206BFD",
"1 	c #004EB7",
"2 	c #206BE5",
"3 	c #8FB5F3",
"4 	c #80B8DE",
"5 	c #81C6F4",
"6 	c #B5DFFC",
"7 	c #3F80EE",
"8 	c #77B7E0",
"9 	c #649CDD",
"0 	c #81C6F3",
"a 	c #86CEFE",
"b 	c #5D95DD",
"c 	c #C2E6FE",
"d 	c #87CEFE",
"e 	c #4D8ED5",
"f 	c #84CCFB",
"g 	c #4485D2",
"h 	c #87CFFF",
"i 	c #004EBD",
"j 	c #4C8DD4",
"k 	c #84CBFA",
"l 	c #85CDFD",
"m 	c #4384D2",
"n 	c #83CBFA",
"o 	c #86CDFD",
"p 	c #4384D1",
"q 	c #4283D1",
"r 	c #7FAAFD",
"s 	c #0050CD",
"t 	c #65FDF7",
"u 	c #75E5FA",
"v 	c #008CE8",
"w 	c #76E6FB",
"x 	c #00C3D3",
"y 	c #389EDB",
"z 	c #7EC5F1",
"A 	c #7FC3F0",
"B 	c #2E97DB",
"C 	c #14B1E8",
"D 	c #6CBADF",
"E 	c #81C7F5",
"F 	c #6DB6DB",
"G 	c #0CADED",
"H 	c #027CF8",
"I 	c #3CBFD2",
"J 	c #679DC0",
"K 	c #37C9D4",
"L 	c #006DFA",
"M 	c #004EBC",
"N 	c #0071FA",
"O 	c #51E6EB",
"P 	c #99E1E9",
"Q 	c #99E1EA",
"R 	c #47EEEC",
"S 	c #0061FC",
"T 	c #004EB6",
"U 	c #004DAF",
"V 	c #0064F1",
"W 	c #35D8F6",
"X 	c #2FD5F5",
"Y 	c #005AEF",
"Z 	c #0050B1",
"` 	c #32E0E5",
" .	c #1C64AE",
"..	c #0050CC",
"+.	c #008ED8",
"@.	c #00C2D3",
"#.	c #0087D8",
"$.	c #0050C8",
"%.	c #2773BD",
"&.	c #0087B8",
"*.	c #4D8ECA",
"=.	c #004CA5",
"-.	c #0056A7",
";.	c #005FA6",
">.	c #0055A7",
",.	c #004BA4",
"                                                                                                    ",
"                                                                                                    ",
"                                                                                                    ",
"                                                                                                    ",
"                                                                                                    ",
"        . . . . . . . . +                                                                           ",
"      @ # $ % % % % % & *                         = - ;                         = - ;               ",
"      > , ' ) ) ) ) ! ~ { ]                     - ^ ) / ;                     - ^ ) / ;             ",
"      ( _ : < < < < [ } | 1                   - ) ) ) 2 -                   - ) ) ) 2 -             ",
"      ( 3 4 5 5 5 5 5 6 7 1                 - ) ) ) 8 2 -                 - ) ) ) 8 2 -             ",
"      ( 9 0 a a a a a a b 1               - ) ) c d 8 2 -               - ) ) c d 8 2 -             ",
"      ( e f a a a a d d g 1             - ) ) c h d d 2 -             - ) ) c h d d 2 -             ",
"      i j k l l l l a a m ]           - ) ) c h h h h 2 -           - ) ) c h h h h 2 -             ",
"      i j k l l l l a a m ]         - ) ) c a d d d d 2 -         - ) ) c a d d d d 2 -             ",
"      i j n l l l l o o p ]       - ) ) c h a a a a a 2 -       - ) ) c h a a a a a 2 -             ",
"      i j n l l l l l l q ]     - r ) c a a a a a a a 2 -     - r ) c a a a a a a a 2 -             ",
"      i j n l l l l l l q ]     s ) c h a a a a a a a 2 -     s ) c h a a a a a a a 2 -             ",
"      i j n l l l l l l q ]   - t t h a a a a a a a a 2 -   - t t h a a a a a a a a 2 -             ",
"      ( e f a a a a a a m 1     s t u a a a a a a a a 2 -     s t u a a a a a a a a 2 -             ",
"      i j n l l l l l l q ]     - v t w a a a a a a a 2 -     - v t w a a a a a a a 2 -             ",
"      i j n l l l l l l q ]       - x t t a a a a a a 2 -       - x t t a a a a a a 2 -             ",
"      i j n l l l l l l q ]         - x t t a a a a a 2 -         - x t t a a a a a 2 -             ",
"      i y z l l l l l A B ]           - x t t a a a a 2 -           - x t t a a a a 2 -             ",
"      i C D E E E E E F G ]             - x t w a a a 2 -             - x t w a a a 2 -             ",
"      i H I J J J J J K L ]               - x t t a a 2 -               - x t t a a 2 -             ",
"      M N O P P P P Q R S T                 - x t t t 2 -                 - x t t t 2 -             ",
"      U V W t t t t t X Y Z                   - x ` t 2 -                   - x ` t 2 -             ",
"       ...+.@.@.@.@.@.#.$.%.                    - &.x &.;                     - &.x &.;             ",
"      *.=.-.;.;.;.;.;.>.,.                        - - ;                         - - ;               ",
"        - - - - - - - -                                                                             ",
"                                                                                                    ",
"                                                                                                    ",
"                                                                                                    ",
"                                                                                                    ",
"                                                                                                    "};
