/* XPM */
static char * rew_xpm[] = {
"36 35 22 1",
" 	c None",
".	c #2D6AA3",
"+	c #004B9D",
"@	c #00254E",
"#	c #7FA4CD",
"$	c #FEFEFE",
"%	c #2065B5",
"&	c #206BE5",
"*	c #77B7E0",
"=	c #C2E6FE",
"-	c #87CEFE",
";	c #87CFFF",
">	c #86CEFE",
",	c #7FAAFD",
"'	c #0050CD",
")	c #65FDF7",
"!	c #75E5FA",
"~	c #008CE8",
"{	c #76E6FB",
"]	c #00C3D3",
"^	c #32E0E5",
"/	c #0087B8",
"                                    ",
"                                    ",
"                                    ",
"                                    ",
"                                    ",
"                                    ",
"           .+@            .+@       ",
"          +#$%@          +#$%@      ",
"         +$$$&+         +$$$&+      ",
"        +$$$*&+        +$$$*&+      ",
"       +$$=-*&+       +$$=-*&+      ",
"      +$$=;--&+      +$$=;--&+      ",
"     +$$=;;;;&+     +$$=;;;;&+      ",
"    +$$=>----&+    +$$=>----&+      ",
"   +$$=;>>>>>&+   +$$=;>>>>>&+      ",
"  +,$=>>>>>>>&+  +,$=>>>>>>>&+      ",
"  '$=;>>>>>>>&+  '$=;>>>>>>>&+      ",
" +));>>>>>>>>&+ +));>>>>>>>>&+      ",
"  ')!>>>>>>>>&+  ')!>>>>>>>>&+      ",
"  +~){>>>>>>>&+  +~){>>>>>>>&+      ",
"   +]))>>>>>>&+   +]))>>>>>>&+      ",
"    +]))>>>>>&+    +]))>>>>>&+      ",
"     +]))>>>>&+     +]))>>>>&+      ",
"      +]){>>>&+      +]){>>>&+      ",
"       +]))>>&+       +]))>>&+      ",
"        +])))&+        +])))&+      ",
"         +]^)&+         +]^)&+      ",
"          +/]/@          +/]/@      ",
"           ++@            ++@       ",
"                                    ",
"                                    ",
"                                    ",
"                                    ",
"                                    ",
"                                    "};
