/* XPM */
static char * stop_xpm[] = {
"30 25 52 1",
" 	c None",
".	c #004C9E",
"+	c #0050C9",
"@	c #0054ED",
"#	c #1262FE",
"$	c #9FC1D6",
"%	c #0056FE",
"&	c #0052DA",
"*	c #004FC1",
"=	c #004CAD",
"-	c #2971FD",
";	c #FEFEFE",
">	c #D3E1FD",
",	c #0055FD",
"'	c #004C9D",
")	c #004B9D",
"!	c #004DAE",
"~	c #5E94DB",
"{	c #85CDFD",
"]	c #095DFE",
"^	c #0055EE",
"/	c #004A9C",
"(	c #0056FC",
"_	c #65FDF7",
":	c #0054EB",
"<	c #0055AB",
"[	c #004CA6",
"}	c #0052D3",
"|	c #0054F0",
"1	c #0066FC",
"2	c #00B3F4",
"3	c #43E5F6",
"4	c #65FEF7",
"5	c #21CDF5",
"6	c #00A4F6",
"7	c #0053E2",
"8	c #004CA8",
"9	c #2D73B8",
"0	c #0050C8",
"a	c #0053DE",
"b	c #009ED6",
"c	c #00C2D3",
"d	c #00C3D3",
"e	c #0078DA",
"f	c #0853A2",
"g	c #367BBD",
"h	c #004CA5",
"i	c #0059A7",
"j	c #005FA6",
"k	c #0053A8",
"l	c #004CA1",
"m	c #1760AB",
"    .....................     ",
"  +@#@@$$$$$$$$$$$$$$@@%&*    ",
" =%%-;;;;;;;;;;;;;;;;;>,%@'   ",
")!%-;~{{{{{{{{{{{{{{{~;;]^..  ",
")%-~~{{{{{{{{{{{{{{{{{{~~%%.  ",
")%~~{{{{{{{{{{{{{{{{{{{{~~%.  ",
".%~{{{{{{{{{{{{{{{{{{{{{{~%)  ",
")%~{{{{{{{{{{{{{{{{{{{{{{~%)  ",
")%~{{{{{{{{{{{{{{{{{{{{{{~%)  ",
")%~{{{{{{{{{{{{{{{{{{{{{{~%)  ",
"/%~{{{{{{{{{{{{{{{{{{{{{{~%)  ",
"/%~{{{{{{{{{{{{{{{{{{{{{{~%)  ",
"/%~{{{{{{{{{{{{{{{{{{{{{{~%)  ",
")%~{{{{{{{{{{{{{{{{{{{{{{~%)  ",
"/%~{{{{{{{{{{{{{{{{{{{{{{~%)  ",
"/%~{{{{{{{{{{{{{{{{{{{{{{~%)  ",
"/%~{{{{{{{{{{{{{{{{{{{{{~~%)  ",
"/%~{{{{{{{{{{{{{{{{{{{{{~~%)  ",
"/%~~{{{{{{{{{{{{{{{{{{{{~~%)  ",
"/%(~~{{{{{{{{{{{{{{{{{{~~-%)  ",
".=(-~__~{{{{{{{{{{{{~__~-:))  ",
"<[}|123_44_44_44_44_456-78))  ",
" 9)0aabcddcddcddcddcde--8fg   ",
"   h88ijjjjjjjjjjjjjjk88lm    ",
"    )))))))))))))))))))))     "};
